<svg xmlns="http://www.w3.org/2000/svg" version="1.1" xmlns:xlink="http://www.w3.org/1999/xlink" width="1000" height="1000"><style>
    #light-icon {
      display: inline;
    }
    #dark-icon {
      display: none;
    }

    @media (prefers-color-scheme: dark) {
      #light-icon {
        display: none;
      }
      #dark-icon {
        display: inline;
      }
    }
  </style><g id="light-icon"><svg xmlns="http://www.w3.org/2000/svg" version="1.1" xmlns:xlink="http://www.w3.org/1999/xlink" width="1000" height="1000"><g clip-path="url(#SvgjsClipPath1042)"><rect width="1000" height="1000" fill="#ffffff"></rect><g transform="matrix(3.5,0,0,3.5,150,150)"><svg xmlns="http://www.w3.org/2000/svg" version="1.1" xmlns:xlink="http://www.w3.org/1999/xlink" viewBox="0 0 200 200" width="200" height="200"><rect width="200" height="200" fill="url('#gradient')"></rect><defs><linearGradient id="gradient" gradientTransform="rotate(45 0.5 0.5)"><stop offset="0%" stop-color="#ffffff"></stop><stop offset="100%" stop-color="#ffffff"></stop></linearGradient><clipPath id="SvgjsClipPath1042"><rect width="1000" height="1000" x="0" y="0" rx="350" ry="350"></rect></clipPath></defs><g><g fill="#1447e6" transform="matrix(4.664973861090366,0,0,4.664973861090366,36.62734645607758,124.63426588049924)" stroke="#1447e6" stroke-width="0.2"><path d="M5.39-2.34L5.39-2.34Q6.08-2.34 6.46-2.72Q6.85-3.10 6.84-3.77L6.84-3.77L9.92-3.77Q9.92-2.03 8.68-0.92Q7.43 0.20 5.47 0.20L5.47 0.20Q3.16 0.20 1.84-1.25Q0.51-2.70 0.51-5.25L0.51-5.25L0.51-5.39Q0.51-6.99 1.10-8.22Q1.69-9.44 2.80-10.10Q3.92-10.76 5.44-10.76L5.44-10.76Q7.50-10.76 8.71-9.62Q9.92-8.48 9.92-6.52L9.92-6.52L6.84-6.52Q6.84-7.34 6.44-7.78Q6.04-8.22 5.36-8.22L5.36-8.22Q4.08-8.22 3.87-6.59L3.87-6.59Q3.80-6.07 3.80-5.17L3.80-5.17Q3.80-3.57 4.18-2.96Q4.56-2.34 5.39-2.34ZM11.34-10.57L14.42-10.57L14.53-9.33Q15.65-10.76 17.55-10.76L17.55-10.76Q19.55-10.76 20.25-9.17L20.25-9.17Q21.33-10.76 23.36-10.76L23.36-10.76Q26.57-10.76 26.66-6.88L26.66-6.88L26.66 0L23.36 0L23.36-6.67Q23.36-7.48 23.09-7.85Q22.81-8.22 22.09-8.22L22.09-8.22Q21.11-8.22 20.63-7.35L20.63-7.35L20.64-7.22L20.64 0L17.34 0L17.34-6.65Q17.34-7.48 17.08-7.85Q16.82-8.22 16.07-8.22L16.07-8.22Q15.13-8.22 14.63-7.35L14.63-7.35L14.63 0L11.34 0L11.34-10.57Z"></path></g></g></svg></g></g></svg></g><g id="dark-icon"><svg xmlns="http://www.w3.org/2000/svg" version="1.1" xmlns:xlink="http://www.w3.org/1999/xlink" width="1000" height="1000"><g clip-path="url(#SvgjsClipPath1043)"><rect width="1000" height="1000" fill="#ffffff"></rect><g transform="matrix(3.5,0,0,3.5,150,150)"><svg xmlns="http://www.w3.org/2000/svg" version="1.1" xmlns:xlink="http://www.w3.org/1999/xlink" viewBox="0 0 200 200" width="200" height="200"><rect width="200" height="200" fill="url('#gradient')"></rect><defs><linearGradient id="gradient" gradientTransform="rotate(45 0.5 0.5)"><stop offset="0%" stop-color="#ffffff"></stop><stop offset="100%" stop-color="#ffffff"></stop></linearGradient><clipPath id="SvgjsClipPath1043"><rect width="1000" height="1000" x="0" y="0" rx="350" ry="350"></rect></clipPath></defs><g><g fill="#1447e6" transform="matrix(4.664973861090366,0,0,4.664973861090366,36.62734645607758,124.63426588049924)" stroke="#1447e6" stroke-width="0.2"><path d="M5.39-2.34L5.39-2.34Q6.08-2.34 6.46-2.72Q6.85-3.10 6.84-3.77L6.84-3.77L9.92-3.77Q9.92-2.03 8.68-0.92Q7.43 0.20 5.47 0.20L5.47 0.20Q3.16 0.20 1.84-1.25Q0.51-2.70 0.51-5.25L0.51-5.25L0.51-5.39Q0.51-6.99 1.10-8.22Q1.69-9.44 2.80-10.10Q3.92-10.76 5.44-10.76L5.44-10.76Q7.50-10.76 8.71-9.62Q9.92-8.48 9.92-6.52L9.92-6.52L6.84-6.52Q6.84-7.34 6.44-7.78Q6.04-8.22 5.36-8.22L5.36-8.22Q4.08-8.22 3.87-6.59L3.87-6.59Q3.80-6.07 3.80-5.17L3.80-5.17Q3.80-3.57 4.18-2.96Q4.56-2.34 5.39-2.34ZM11.34-10.57L14.42-10.57L14.53-9.33Q15.65-10.76 17.55-10.76L17.55-10.76Q19.55-10.76 20.25-9.17L20.25-9.17Q21.33-10.76 23.36-10.76L23.36-10.76Q26.57-10.76 26.66-6.88L26.66-6.88L26.66 0L23.36 0L23.36-6.67Q23.36-7.48 23.09-7.85Q22.81-8.22 22.09-8.22L22.09-8.22Q21.11-8.22 20.63-7.35L20.63-7.35L20.64-7.22L20.64 0L17.34 0L17.34-6.65Q17.34-7.48 17.08-7.85Q16.82-8.22 16.07-8.22L16.07-8.22Q15.13-8.22 14.63-7.35L14.63-7.35L14.63 0L11.34 0L11.34-10.57Z"></path></g></g></svg></g></g></svg></g></svg>